<svg width="72" height="42" viewBox="0 0 72 42" fill="none" xmlns="http://www.w3.org/2000/svg">
<path d="M9.3275 10.789C8.86113 11.3003 8.27818 11.6613 7.63692 11.932C6.99566 12.2027 6.32526 12.323 5.59656 12.323C4.57638 12.323 3.64365 12.0523 2.79836 11.541C1.95306 11.0296 1.28266 10.3378 0.787144 9.46549C0.291629 8.59318 0.0292969 7.63064 0.0292969 6.57786C0.0292969 5.52508 0.291629 4.56254 0.787144 3.69024C1.28266 2.81794 1.95306 2.12611 2.79836 1.61476C3.64365 1.13349 4.57638 0.862778 5.59656 0.862778C6.32526 0.862778 7.02481 0.983095 7.66607 1.25381C8.30732 1.52452 8.89028 1.91556 9.3858 2.39683L8.33647 3.47969C7.9867 3.14881 7.54948 2.8781 7.08311 2.66754C6.61674 2.48707 6.12122 2.36675 5.59656 2.36675C4.83871 2.36675 4.16831 2.54722 3.5562 2.93826C2.9441 3.29921 2.44858 3.81056 2.0988 4.44223C1.71988 5.07389 1.54499 5.7958 1.54499 6.54778C1.54499 7.29977 1.71988 8.02168 2.0988 8.65334C2.44858 9.28501 2.9441 9.79636 3.5562 10.1573C4.16831 10.5483 4.86786 10.7288 5.59656 10.7288C6.12122 10.7288 6.58759 10.6386 7.05396 10.4581C7.52033 10.2776 7.9284 10.0069 8.27818 9.67604L9.3275 10.789Z" fill="black"/>
<path d="M17.3138 1.40421C17.9842 1.76516 18.4797 2.21635 18.8878 2.75778C19.2667 3.32929 19.4708 3.9008 19.4708 4.56254C19.4708 4.80318 19.4708 5.34461 19.4708 6.15675C19.4708 6.9689 19.4708 7.8412 19.4708 8.77366C19.4708 9.7362 19.4708 10.5483 19.4708 11.2702C19.4708 11.9922 19.4708 12.323 19.4708 12.323H18.0134C18.0134 12.323 18.0134 12.2328 18.0134 12.0523C18.0134 11.8718 18.0134 11.6914 18.0134 11.4507C18.0134 11.2101 18.0134 11.0296 18.0134 10.8491C18.0134 10.6687 18.0134 10.5784 18.0134 10.5483C17.9842 9.7362 17.7802 9.10453 17.3721 8.68342C16.964 8.29239 16.4394 8.02168 15.8564 7.90136C15.2735 7.78104 14.7196 7.72088 14.1658 7.72088C13.612 7.72088 13.1457 7.72088 12.7959 7.72088C12.4461 7.72088 12.2712 7.72088 12.2712 7.72088C12.2712 7.81112 12.2712 8.11191 12.2712 8.59318C12.2712 9.07445 12.2712 9.5858 12.2712 10.1573C12.2712 10.7288 12.2712 11.2101 12.2712 11.6613C12.2712 12.0824 12.2712 12.2929 12.2712 12.2929H10.7847C10.7847 12.2929 10.7847 11.9019 10.7847 11.1499C10.7847 10.3979 10.7847 9.52565 10.7847 8.53302C10.7847 7.5404 10.7847 6.6681 10.7847 5.91612C10.7847 5.16413 10.7847 4.74302 10.7847 4.65278C10.7847 3.99104 10.9887 3.35937 11.4259 2.78786C11.834 2.21635 12.3878 1.73508 13.0582 1.37413C13.6703 1.04325 14.3699 0.862778 15.1277 0.862778C15.9147 0.862778 16.6726 1.04325 17.3138 1.40421ZM17.9842 5.6454C17.9842 5.16413 17.9551 4.89342 17.9551 4.80318C17.8676 4.11135 17.547 3.53984 16.9932 3.08865C16.4394 2.63746 15.8273 2.42691 15.0986 2.42691C14.3407 2.42691 13.6995 2.66754 13.1457 3.17889C12.5918 3.66016 12.3004 4.29183 12.2129 5.01373C12.2129 5.07389 12.2129 5.46493 12.2129 6.21691H14.6322C15.39 6.21691 16.0605 6.27707 16.6143 6.45755C17.1681 6.60794 17.6053 6.87866 17.9551 7.26969C17.9842 6.63802 17.9842 6.09659 17.9842 5.6454Z" fill="black"/>
<path d="M28.6232 9.94675C29.0021 10.7288 29.177 11.541 29.177 12.3531H27.6904C27.6904 11.6914 27.5156 11.0597 27.1658 10.3979C26.816 9.76628 26.2913 9.22485 25.6209 8.77366C25.3003 8.53302 24.9505 8.38262 24.6008 8.29239C24.1635 8.23223 23.668 8.20215 23.1434 8.23223C22.881 8.23223 22.6187 8.26231 22.3272 8.26231L22.2981 12.3531H20.8115V2.99841C20.8115 2.27651 20.9573 1.76516 21.2487 1.4042C21.5402 1.07333 22.0066 0.892853 22.677 0.892853C23.0559 0.892853 23.4348 0.892853 23.8138 0.892853C24.1927 0.892853 24.5133 0.892853 24.7465 0.892853C25.0088 0.892853 25.1254 0.892853 25.1254 0.892853C25.9124 0.892853 26.5828 1.04325 27.1949 1.31396C27.807 1.58468 28.2734 2.00579 28.6232 2.5773C28.973 3.14881 29.1478 3.84063 29.1478 4.65278C29.1478 5.22429 29.0604 5.70556 28.8855 6.12667C28.7106 6.54778 28.4483 6.90873 28.1277 7.17945C27.807 7.45016 27.4281 7.6908 26.9909 7.87127C27.7196 8.47286 28.2443 9.16469 28.6232 9.94675ZM26.4662 6.48762C26.8452 6.3673 27.1366 6.15675 27.3407 5.88603C27.5447 5.58524 27.6613 5.19421 27.6613 4.68286C27.6613 4.17151 27.5739 3.78048 27.399 3.47968C27.2241 3.17889 26.9909 2.93825 26.6703 2.78786C26.3496 2.63746 25.9707 2.51714 25.5335 2.45698C25.5043 2.45698 25.3586 2.45698 25.0963 2.45698C24.8339 2.45698 24.5133 2.45698 24.1635 2.45698C23.8138 2.45698 23.4931 2.45698 23.2308 2.45698C22.9685 2.45698 22.8227 2.45698 22.8227 2.45698C22.677 2.48706 22.5604 2.54722 22.473 2.63746C22.3855 2.7277 22.3272 2.87809 22.3272 2.99841C22.3272 2.99841 22.3272 3.17889 22.3272 3.56992C22.3272 3.96095 22.3272 4.35198 22.3272 4.83325C22.3272 5.31452 22.3272 5.73564 22.3272 6.12667C22.3272 6.5177 22.3272 6.69818 22.3272 6.72826C22.881 6.72826 23.4348 6.72826 23.9304 6.72826C24.2801 6.72826 24.5716 6.72826 24.8048 6.72826C25.038 6.72826 25.1546 6.72826 25.1546 6.72826C25.6501 6.69818 26.0873 6.60794 26.4662 6.48762Z" fill="black"/>
<path d="M6.6164 15.7822C7.2868 16.1431 7.78232 16.5943 8.19039 17.1357C8.56932 17.7072 8.77335 18.2787 8.77335 18.9405C8.77335 19.1811 8.77335 19.7226 8.77335 20.5347C8.77335 21.3468 8.77335 22.2191 8.77335 23.1516C8.77335 24.1141 8.77335 24.9263 8.77335 25.6482C8.77335 26.3701 8.77335 26.701 8.77335 26.701H7.31595C7.31595 26.701 7.31595 26.6107 7.31595 26.4303C7.31595 26.2498 7.31595 26.0693 7.31595 25.8287C7.31595 25.588 7.31595 25.4076 7.31595 25.2271C7.31595 25.0466 7.31595 24.9564 7.31595 24.9263C7.2868 24.1142 7.08277 23.4825 6.6747 23.0614C6.26663 22.6703 5.74196 22.3996 5.159 22.2793C4.57604 22.159 4.02223 22.0988 3.46842 22.0988C2.91461 22.0988 2.44824 22.0988 2.09846 22.0988C1.74869 22.0988 1.5738 22.0988 1.5738 22.0988C1.5738 22.1891 1.5738 22.4899 1.5738 22.9711C1.5738 23.4524 1.5738 23.9638 1.5738 24.5353C1.5738 25.1068 1.5738 25.588 1.5738 26.0392C1.5738 26.4603 1.5738 26.6709 1.5738 26.6709H0.0581055C0.0581055 26.6709 0.0581055 26.2799 0.0581055 25.5279C0.0581055 24.7759 0.0581055 23.9036 0.0581055 22.911C0.0581055 21.9184 0.0581055 21.0461 0.0581055 20.2941C0.0581055 19.5421 0.0581055 19.121 0.0581055 19.0307C0.0581055 18.369 0.262141 17.7373 0.699361 17.1658C1.10743 16.5943 1.66124 16.113 2.33165 15.7521C3.00205 15.3911 3.7016 15.2106 4.45945 15.2106C5.24645 15.2407 5.97515 15.4212 6.6164 15.7822ZM7.2868 20.0234C7.2868 19.5421 7.25766 19.2714 7.25766 19.1811C7.17021 18.4893 6.84959 17.9178 6.29577 17.4666C5.74196 17.0154 5.12985 16.8049 4.40115 16.8049C3.64331 16.8049 3.00205 17.0455 2.44824 17.5568C1.89443 18.0381 1.60295 18.6698 1.5155 19.3917C1.5155 19.4518 1.5155 19.8429 1.5155 20.5949H3.93479C4.69263 20.5949 5.36304 20.655 5.91685 20.8355C6.47066 20.9859 6.90788 21.2566 7.25766 21.6476C7.31595 21.016 7.31595 20.4745 7.2868 20.0234Z" fill="black"/>
<path d="M19.4125 25.1669C18.9461 25.6783 18.3631 26.0392 17.7219 26.3099C17.0806 26.5807 16.4102 26.701 15.6815 26.701C14.6613 26.701 13.7286 26.4303 12.8833 25.9189C12.038 25.4076 11.3676 24.7157 10.8721 23.8434C10.3766 22.9711 10.1143 22.0086 10.1143 20.9558C10.1143 19.903 10.3766 18.9405 10.8721 18.0682C11.3676 17.1959 12.038 16.5041 12.8833 15.9927C13.7286 15.4814 14.6613 15.2106 15.6815 15.2106C16.4102 15.2106 17.1098 15.331 17.751 15.6017C18.3923 15.8724 18.9752 16.2634 19.4708 16.7447L18.4214 17.8276C18.0717 17.4967 17.6344 17.226 17.1681 17.0154C16.7017 16.8349 16.2062 16.7146 15.6815 16.7146C14.9237 16.7146 14.2533 16.8951 13.6412 17.2861C13.0291 17.6471 12.5335 18.1584 12.1838 18.7901C11.8048 19.4218 11.63 20.1437 11.63 20.8957C11.63 21.6476 11.8048 22.3695 12.1838 23.0012C12.5335 23.6329 13.0291 24.1442 13.6412 24.5052C14.2533 24.8962 14.9528 25.0767 15.6815 25.0767C16.2062 25.0767 16.6726 24.9865 17.1389 24.806C17.6053 24.6255 18.0134 24.3548 18.3631 24.0239L19.4125 25.1669Z" fill="black"/>
<path d="M29.4979 25.1669C29.0315 25.6783 28.4486 26.0392 27.8073 26.3099C27.1661 26.5807 26.4957 26.701 25.767 26.701C24.7468 26.701 23.8141 26.4303 22.9688 25.9189C22.1235 25.4076 21.4531 24.7157 20.9576 23.8434C20.462 22.9711 20.1997 22.0086 20.1997 20.9558C20.1997 19.903 20.462 18.9405 20.9576 18.0682C21.4531 17.1959 22.1235 16.5041 22.9688 15.9927C23.8141 15.4814 24.7468 15.2106 25.767 15.2106C26.4957 15.2106 27.1952 15.331 27.8365 15.6017C28.4777 15.8724 29.0607 16.2634 29.5562 16.7447L28.5069 17.8276C28.1571 17.4967 27.7199 17.226 27.2535 17.0154C26.7872 16.8349 26.2916 16.7146 25.767 16.7146C25.0091 16.7146 24.3387 16.8951 23.7266 17.2861C23.1145 17.6471 22.619 18.1584 22.2692 18.7901C21.8903 19.4218 21.7154 20.1437 21.7154 20.8957C21.7154 21.6476 21.8903 22.3695 22.2692 23.0012C22.619 23.6329 23.1145 24.1442 23.7266 24.5052C24.3387 24.8962 25.0383 25.0767 25.767 25.0767C26.2916 25.0767 26.758 24.9865 27.2244 24.806C27.6907 24.6255 28.0988 24.3548 28.4486 24.0239L29.4979 25.1669Z" fill="black"/>
<path d="M32.4418 15.2407V26.701H30.897V15.2407H32.4418Z" fill="black"/>
<path d="M41.3026 17.3463C41.5066 17.5869 41.6815 17.8576 41.8855 18.1885C42.0604 18.5194 42.2353 18.9104 42.3519 19.3917C42.4685 19.8429 42.5559 20.3843 42.5559 20.9859C42.5559 21.4371 42.4976 21.8883 42.3519 22.3094C42.2353 22.7606 42.0604 23.1516 41.8855 23.5426C41.7106 23.9337 41.5066 24.2646 41.3026 24.5353C41.0985 24.806 40.9528 25.0165 40.807 25.1669C40.3115 25.6482 39.7577 26.0392 39.1165 26.3099C38.4752 26.6107 37.7756 26.7311 37.0469 26.7611C36.7555 26.7611 36.4931 26.7611 36.26 26.7611C36.0268 26.7611 35.7936 26.7611 35.5895 26.7611C35.3855 26.7611 35.2106 26.7611 35.0649 26.7611C34.9191 26.7611 34.7734 26.7611 34.6568 26.7611C34.5402 26.7611 34.4236 26.7611 34.3362 26.7611C34.2487 26.7611 34.1613 26.7611 34.103 26.7611C34.0447 26.7611 33.9864 26.7611 33.9573 26.7611C33.9281 26.7611 33.899 26.7611 33.8698 26.7611C33.8407 26.7611 33.8407 26.7611 33.8407 26.7611H33.8115V17.4365C33.8115 17.3463 33.8115 17.226 33.8407 17.0756C33.8698 16.9252 33.899 16.7748 33.9573 16.5943C34.0156 16.4138 34.103 16.2334 34.2487 16.0529C34.4528 15.8122 34.7151 15.6318 35.0066 15.5114C35.3272 15.3911 35.6478 15.331 35.9976 15.3009C36.3474 15.2708 36.6972 15.2407 37.0469 15.2407C37.7756 15.2407 38.4461 15.3911 39.0873 15.6318C39.7286 15.9025 40.2824 16.2634 40.7779 16.7748C40.9236 16.9252 41.0985 17.1057 41.3026 17.3463ZM39.0582 24.5954C39.6703 24.2044 40.1366 23.693 40.5156 23.0313C40.8653 22.3996 41.0694 21.6777 41.0694 20.9257C41.0694 20.1738 40.8945 19.4819 40.5447 18.8503C40.1949 18.2186 39.7286 17.7373 39.1165 17.3764C38.5335 17.0154 37.8631 16.8049 37.1052 16.8049H35.8519C35.5313 16.7748 35.3564 16.9252 35.3272 17.226C35.3272 17.2861 35.3272 17.7072 35.2981 18.5194C35.2981 19.3014 35.2981 20.2038 35.2981 21.2566C35.2981 22.2793 35.2981 23.2118 35.2981 23.9938C35.2981 24.7759 35.2981 25.197 35.2981 25.197H37.0469C37.7756 25.1669 38.4461 24.9865 39.0582 24.5954Z" fill="black"/>
<path d="M50.776 25.1669V26.6709H43.9263V17.5268C43.9263 16.8951 44.1595 16.3537 44.5967 15.9326C45.0339 15.4814 45.5586 15.2708 46.1707 15.2708C46.1707 15.2708 46.4038 15.2708 46.8411 15.2708C47.2783 15.2708 47.8029 15.2708 48.3568 15.2708C48.9106 15.2708 49.4352 15.2708 49.8725 15.2708C50.3097 15.2708 50.5429 15.2708 50.572 15.2708V16.8049C50.5429 16.8049 50.3097 16.8049 49.8725 16.8049C49.4352 16.8049 48.9397 16.8049 48.3568 16.8049C47.7738 16.8049 47.2783 16.8049 46.8411 16.8049C46.4038 16.8049 46.1707 16.8049 46.1707 16.8049C45.9666 16.8049 45.7917 16.865 45.646 17.0154C45.5003 17.1658 45.442 17.3162 45.442 17.5268V20.1738H50.1931V21.6777H45.442L45.4128 25.1369L50.7469 25.1669C50.7469 25.197 50.776 25.197 50.776 25.1669Z" fill="black"/>
<path d="M61.4437 26.6709C61.2688 26.6709 61.0939 26.6709 60.9773 26.6709C60.8899 26.6709 60.7733 26.6709 60.6859 26.6709C59.6948 26.6408 58.937 26.4303 58.3832 25.949C57.8294 25.4978 57.4213 24.8962 57.1298 24.1442C56.8383 23.3922 56.6052 22.6102 56.4011 21.768C56.2554 21.1062 56.0513 20.4745 55.8473 19.8429C55.6433 19.2112 55.3809 18.6397 55.0312 18.1283C54.6814 17.617 54.2442 17.1658 53.6904 16.8349V25.0466V26.701H52.1455V25.0466V16.8349V15.2407C52.1455 15.2407 52.1747 15.2407 52.233 15.2407C52.2912 15.2407 52.3787 15.2407 52.4661 15.2407C52.5536 15.2407 52.641 15.2407 52.7285 15.2407C52.8159 15.2407 52.8742 15.2407 52.9325 15.2407C53.5738 15.2407 54.1276 15.331 54.5939 15.5415C55.0603 15.7521 55.4684 16.0529 55.789 16.4138C56.1096 16.7748 56.4011 17.1959 56.6343 17.6772C56.8675 18.1584 57.0715 18.6698 57.2464 19.1811C57.4213 19.7226 57.567 20.264 57.7419 20.8054C57.9751 21.7078 58.2666 22.55 58.5581 23.3321C58.8787 24.0841 59.3159 24.6857 59.8697 25.0767V16.865V15.2106H61.4146V16.865V25.0767V26.6709H61.4437Z" fill="black"/>
<path d="M71.5294 16.7748H67.9442L67.8859 26.701H66.4285L66.4576 16.8049H62.8433V15.2407H71.5585L71.5294 16.7748Z" fill="black"/>
<path d="M2.27354 33.4989C2.53587 33.7396 2.82735 33.92 3.17713 34.0704C3.52691 34.2208 3.93498 34.4013 4.45964 34.5517C4.95516 34.7021 5.47982 34.8525 5.97534 35.0631C6.47085 35.2736 6.93722 35.4541 7.34529 35.7248C7.75336 35.9955 8.10314 36.2963 8.33632 36.6873C8.56951 37.0784 8.6861 37.5296 8.6861 38.1011C8.65695 38.6726 8.51121 39.1839 8.19058 39.6652C7.86996 40.1164 7.40359 40.4773 6.79148 40.7481C6.17937 41.0188 5.39238 41.109 4.45964 41.109C3.76009 41.0789 3.14798 40.9887 2.65247 40.8082C2.15695 40.6277 1.71973 40.4172 1.3991 40.1766C1.07848 39.9058 0.816144 39.6652 0.612108 39.3945C0.408072 39.1238 0.262332 38.8831 0.174888 38.6425C0.0874439 38.4319 0.029148 38.2515 0 38.1612L1.4574 37.7702C1.54484 38.071 1.69058 38.3417 1.92377 38.6124C2.15695 38.8831 2.47758 39.0937 2.94395 39.3042C3.41031 39.4847 4.02242 39.605 4.78027 39.605C4.92601 39.605 5.18834 39.575 5.56727 39.5148C5.94619 39.4546 6.29596 39.3343 6.61659 39.1539C6.96637 38.9734 7.14126 38.7327 7.1704 38.4019C7.19955 37.9808 7.05381 37.6198 6.76233 37.319C6.47085 37.0483 6.12108 36.8077 5.62556 36.6272C5.15919 36.4467 4.63453 36.2662 4.08072 36.1158C3.5852 35.9654 3.14798 35.815 2.76906 35.6346C2.39013 35.4541 1.98206 35.2435 1.60314 35.0029C1.22422 34.7623 0.903588 34.4314 0.670404 34.0704C0.43722 33.7095 0.349776 33.2282 0.349776 32.6868C0.378924 32.1153 0.524664 31.6039 0.845292 31.1227C1.16592 30.6414 1.57399 30.2804 2.1278 30.0097C2.65247 29.739 3.41031 29.6187 4.34305 29.6488C4.89686 29.6788 5.47982 29.7992 6.12108 30.0398C6.76233 30.2804 7.25785 30.6414 7.63677 31.0625C8.0157 31.5137 8.30718 32.025 8.48206 32.6567L7.02466 33.0477C6.93722 32.7469 6.79148 32.4461 6.5583 32.1754C6.32511 31.8746 5.97534 31.6641 5.47982 31.4535C4.98431 31.273 4.48879 31.1527 4.02242 31.1527C3.35202 31.1527 2.82735 31.3031 2.44843 31.5738C2.06951 31.8746 1.86547 32.2356 1.83632 32.6868C1.86547 32.9876 2.01121 33.2583 2.27354 33.4989Z" fill="black"/>
<path d="M18.8588 30.7918C18.8588 31.5738 18.8588 32.4462 18.8588 33.3786C18.8588 34.3412 18.8588 35.2135 18.8588 35.9955C18.8588 36.7776 18.8297 37.1987 18.8297 37.2889C18.7131 38.0108 18.4799 38.6425 18.0718 39.214C17.6637 39.7855 17.1682 40.2367 16.527 40.5676C15.9149 40.8985 15.2153 41.0789 14.4866 41.0789C13.6705 41.0789 12.9418 40.8985 12.3005 40.5074C11.6301 40.1164 11.1346 39.605 10.7265 38.9433C10.3476 38.3116 10.1436 37.5596 10.1436 36.7776C10.1436 36.5069 10.1436 36.0256 10.1436 35.2736C10.1436 34.5216 10.1436 33.7396 10.1436 32.8673C10.1436 31.995 10.1436 31.243 10.1436 30.5812C10.1436 29.9195 10.1436 29.6187 10.1436 29.6187H11.6301C11.6301 29.6187 11.6301 29.9796 11.6301 30.7316C11.6301 31.4836 11.6301 32.3258 11.601 33.2884C11.601 34.2509 11.601 35.1232 11.601 35.8752C11.601 36.6272 11.601 37.0483 11.601 37.1385C11.6884 37.8304 12.009 38.4019 12.5628 38.8531C13.1166 39.3043 13.7288 39.5148 14.4575 39.5148C15.2153 39.5148 15.8566 39.2742 16.4104 38.7628C16.9642 38.2816 17.2557 37.6499 17.3431 36.928C17.3431 36.8678 17.3431 36.5069 17.3431 35.7549C17.3431 35.033 17.3431 34.1908 17.3431 33.2282C17.3431 32.2657 17.3431 31.4235 17.3431 30.7015C17.3431 29.9796 17.3431 29.5886 17.3431 29.5886H18.8588C18.8588 29.6187 18.8588 30.0097 18.8588 30.7918Z" fill="black"/>
<path d="M26.7868 30.2203C27.3115 30.491 27.7195 30.882 28.0402 31.3633C28.3608 31.8446 28.5065 32.4762 28.5065 33.2282C28.5065 33.7396 28.4482 34.1908 28.3025 34.5818C28.1859 34.9728 27.9819 35.3338 27.7487 35.6346C26.9908 36.5369 25.9124 36.9881 24.4841 36.9881C24.3092 36.9881 23.9595 36.9881 23.4056 36.9881C22.8518 36.9881 22.298 36.9881 21.7442 36.9881H21.7151V40.8985V41.0489H20.2285V36.9881L20.2577 31.7543C20.2577 31.5438 20.2868 31.3633 20.3451 31.1527C20.5783 30.4308 21.0447 29.9496 21.7442 29.739C21.9191 29.6788 22.094 29.6488 22.298 29.6488H25.0088C25.65 29.7691 26.2621 29.9496 26.7868 30.2203ZM25.9998 35.1232C26.3204 34.9728 26.5536 34.7322 26.7285 34.4314C26.9034 34.1306 26.9908 33.7396 26.9908 33.2282C26.9908 32.7469 26.9034 32.386 26.7285 32.0852C26.5536 31.8145 26.2913 31.6039 25.9707 31.4535C25.65 31.3332 25.3003 31.2129 24.8922 31.1828H22.298C22.1523 31.1828 22.0357 31.243 21.9191 31.3332C21.8025 31.4535 21.7734 31.5738 21.7734 31.7242V35.4541C22.2397 35.4541 22.7061 35.4541 23.1725 35.4541C23.6388 35.4541 24.0469 35.4541 24.3675 35.4541C24.6882 35.4541 24.863 35.4541 24.9213 35.4541C25.3003 35.3939 25.6792 35.3037 25.9998 35.1232Z" fill="black"/>
<path d="M36.406 30.2203C36.9306 30.491 37.3387 30.882 37.6593 31.3633C37.9799 31.8446 38.1257 32.4762 38.1257 33.2282C38.1257 33.7396 38.0674 34.1908 37.9216 34.5818C37.8051 34.9728 37.601 35.3338 37.3678 35.6346C36.61 36.5369 35.5315 36.9881 34.1033 36.9881C33.9284 36.9881 33.5786 36.9881 33.0248 36.9881C32.471 36.9881 31.9172 36.9881 31.3634 36.9881H31.3342V40.8985V41.0489H29.8477V36.9881L29.8768 31.7543C29.8768 31.5438 29.906 31.3633 29.9642 31.1527C30.1974 30.4308 30.6638 29.9496 31.3634 29.739C31.5382 29.6788 31.7131 29.6488 31.9172 29.6488H34.6279C35.2692 29.7691 35.8813 29.9496 36.406 30.2203ZM35.619 35.1232C35.9396 34.9728 36.1728 34.7322 36.3477 34.4314C36.5225 34.1306 36.61 33.7396 36.61 33.2282C36.61 32.7469 36.5225 32.386 36.3477 32.0852C36.1728 31.8145 35.9104 31.6039 35.5898 31.4535C35.2692 31.3332 34.9194 31.2129 34.5113 31.1828H31.9172C31.7714 31.1828 31.6548 31.243 31.5382 31.3332C31.4216 31.4535 31.3925 31.5738 31.3925 31.7242V35.4541C31.8589 35.4541 32.3252 35.4541 32.7916 35.4541C33.258 35.4541 33.666 35.4541 33.9867 35.4541C34.3073 35.4541 34.4822 35.4541 34.5405 35.4541C34.9486 35.3939 35.2983 35.3037 35.619 35.1232Z" fill="black"/>
<path d="M47.8318 30.3707C48.6771 30.882 49.3475 31.5738 49.843 32.4462C50.3385 33.3185 50.6008 34.281 50.6008 35.3338C50.6008 36.3866 50.3385 37.3491 49.843 38.2214C49.3475 39.0937 48.6771 39.7855 47.8318 40.2969C46.9865 40.8082 46.0538 41.0789 45.0336 41.0789C44.0134 41.0789 43.0807 40.8082 42.2354 40.2969C41.3901 39.7855 40.7197 39.0937 40.2242 38.2214C39.7286 37.3491 39.4663 36.3866 39.4663 35.3338C39.4663 34.281 39.7286 33.3185 40.2242 32.4462C40.7197 31.5738 41.3901 30.882 42.2354 30.3707C43.0807 29.8593 44.0134 29.5886 45.0336 29.5886C46.0538 29.6187 46.9865 29.8593 47.8318 30.3707ZM47.0739 38.9433C47.686 38.5823 48.1816 38.071 48.5313 37.4393C48.9103 36.8077 49.0851 36.0858 49.0851 35.3338C49.0851 34.5517 48.9103 33.8599 48.5313 33.2282C48.1816 32.5965 47.686 32.0852 47.0739 31.7242C46.4618 31.3332 45.7623 31.1527 45.0336 31.1527C44.2757 31.1527 43.6053 31.3332 42.9932 31.7242C42.3811 32.0852 41.8856 32.5965 41.5358 33.2282C41.1569 33.8599 40.982 34.5818 40.982 35.3338C40.982 36.0858 41.1569 36.8077 41.5358 37.4393C41.8856 38.071 42.3811 38.5823 42.9932 38.9433C43.6053 39.3343 44.3049 39.5148 45.0336 39.5148C45.7623 39.5148 46.4327 39.3343 47.0739 38.9433Z" fill="black"/>
<path d="M59.7531 38.6726C60.132 39.4547 60.3069 40.2668 60.3069 41.0789H58.8203C58.8203 40.4172 58.6454 39.7855 58.2957 39.1238C57.9459 38.4921 57.4212 37.9507 56.7508 37.4995C56.4302 37.2589 56.0804 37.1085 55.7306 37.0182C55.2934 36.9581 54.7979 36.928 54.2732 36.9581C54.0109 36.9581 53.7486 36.9881 53.4571 36.9881L53.428 41.0789H51.9414V31.7242C51.9414 31.0023 52.0871 30.491 52.3786 30.13C52.6701 29.7992 53.1365 29.6187 53.8069 29.6187C54.1858 29.6187 54.5647 29.6187 54.9436 29.6187C55.3226 29.6187 55.6432 29.6187 55.8764 29.6187C56.1387 29.6187 56.2553 29.6187 56.2553 29.6187C57.0423 29.6187 57.7127 29.7691 58.3248 30.0398C58.9369 30.3105 59.4033 30.7316 59.7531 31.3031C60.1028 31.8746 60.2777 32.5665 60.2777 33.3786C60.2777 33.9501 60.1903 34.4314 60.0154 34.8525C59.8405 35.2736 59.5782 35.6346 59.2575 35.9053C58.9369 36.176 58.558 36.4166 58.1208 36.5971C58.8203 37.1987 59.3741 37.8905 59.7531 38.6726ZM57.567 35.2435C57.9459 35.1232 58.2374 34.9127 58.4414 34.642C58.6454 34.3412 58.762 33.9501 58.762 33.4388C58.762 32.9274 58.6746 32.5364 58.4997 32.2356C58.3248 31.9348 58.0916 31.6942 57.771 31.5438C57.4504 31.3934 57.0714 31.2731 56.6342 31.2129C56.6051 31.2129 56.4593 31.2129 56.197 31.2129C55.9347 31.2129 55.6141 31.2129 55.2643 31.2129C54.9145 31.2129 54.5939 31.2129 54.3315 31.2129C54.0692 31.2129 53.9235 31.2129 53.9235 31.2129C53.7777 31.243 53.6611 31.3031 53.5737 31.3934C53.4862 31.4836 53.428 31.634 53.428 31.7543C53.428 31.7543 53.428 31.9348 53.428 32.3258C53.428 32.7169 53.428 33.1079 53.428 33.5892C53.428 34.0704 53.428 34.4916 53.428 34.8826C53.428 35.2736 53.428 35.4541 53.428 35.4842C53.9818 35.4842 54.5356 35.4842 55.0311 35.4842C55.3809 35.4842 55.6723 35.4842 55.9055 35.4842C56.1387 35.4842 56.2553 35.4842 56.2553 35.4842C56.78 35.424 57.188 35.3639 57.567 35.2435Z" fill="black"/>
<path d="M69.926 31.1527H66.3408L66.3116 41.0489H64.8542L64.8834 31.1527H61.269V29.5886H69.926V31.1527Z" fill="black"/>
<path d="M41.5943 12.323H33.1997L41.9441 0.862778H50.3387L41.5943 12.323Z" fill="black"/>
<path d="M52.2916 12.323H43.897L52.6414 0.862778H61.036L52.2916 12.323Z" fill="black"/>
<path d="M62.9893 12.323H54.5947L63.3391 0.862778H71.7337L62.9893 12.323Z" fill="black"/>
</svg>
